<svg width="270" height="45" viewBox="0 0 270 45" fill="none" xmlns="http://www.w3.org/2000/svg">
<g clip-path="url(#clip0_1426_98)">
<path d="M0.00783593 21.9507C0.00783593 14.9977 0.00783593 8.04476 0 1.09179C0 0.801862 0.0626874 0.71828 0.365677 0.71828C5.51388 0.73134 10.6595 0.679101 15.8051 0.749624C19.6708 0.804474 23.4608 1.39216 27.0392 2.96193C30.7325 4.58395 33.3785 7.31081 35.2147 10.863C36.5624 13.4698 37.3251 16.2489 37.5837 19.1638C37.9233 23.0085 37.7169 26.8167 36.4789 30.497C34.3397 36.8466 29.9594 40.8037 23.4791 42.444C21.4809 42.9507 19.4409 43.1675 17.3801 43.1675C11.7121 43.1701 6.0415 43.1648 0.373513 43.1753C0.0783593 43.1753 0.00261198 43.1048 0.00261198 42.807C0.00783593 35.8567 0.00783593 28.9037 0.00783593 21.9507ZM11.639 22.0552C11.639 25.6675 11.6416 29.2772 11.6337 32.8895C11.6337 33.1585 11.6703 33.2604 11.9759 33.2526C12.8013 33.2264 13.6293 33.2473 14.4547 33.2421C15.7372 33.2317 17.017 33.1559 18.2682 32.8503C21.8048 31.9858 24.1843 29.857 25.2369 26.3492C26.0597 23.6067 26.0545 20.8223 25.4433 18.0406C24.9966 16.0112 24.0563 14.2533 22.3768 12.9656C20.6425 11.6336 18.6156 11.1347 16.4816 10.978C14.9823 10.8683 13.483 10.9309 11.9811 10.9048C11.699 10.8996 11.6233 10.9623 11.6259 11.2548C11.6442 14.8541 11.639 18.4559 11.639 22.0552Z" fill="#3B3B3D"/>
<path d="M45.9473 39.4142C46.3573 38.7977 46.7779 38.1918 47.1723 37.5701C47.9951 36.2772 48.7342 34.9242 49.7843 33.7985C51.0589 32.4298 52.4929 31.2492 54.2742 30.5858C55.5332 30.1157 56.8497 30.1418 58.1713 30.2097C59.9266 30.2985 61.465 31.0821 63.0818 31.6384C64.9651 32.2836 66.8326 33.0149 68.8125 33.344C70.8342 33.681 73.0596 32.9653 73.9398 30.4552C74.0182 30.228 74.0835 30.1653 74.3342 30.2724C77.9414 31.7873 81.5537 33.2892 85.1687 34.7858C85.3933 34.8798 85.4482 34.9425 85.3333 35.1933C84.2127 37.6041 82.6351 39.6492 80.4907 41.2295C79.1768 42.1959 77.6749 42.8018 76.1313 43.3059C74.9219 43.7003 73.6943 44.0477 72.4066 44.0138C71.5394 43.9903 70.6905 43.7552 69.8286 43.6612C68.0785 43.4679 66.5114 42.6765 64.8632 42.1541C63.7453 41.8015 62.6378 41.4306 61.4729 41.2503C59.4878 40.9448 57.9232 41.7257 56.9959 43.5175C56.9228 43.6586 56.8941 43.7996 56.6538 43.703C53.1328 42.2899 49.6066 40.8899 46.0831 39.4847C46.0387 39.4638 46.0021 39.4403 45.9473 39.4142Z" fill="#23344D"/>
<path d="M57.1657 15.1596C58.9026 15.11 60.5847 15.6298 62.2616 16.2958C64.3799 17.1369 66.5348 17.9022 68.7864 18.3201C70.8237 18.6988 73.0752 17.9413 73.9424 15.4261C74.0207 15.2014 74.086 15.1518 74.3237 15.2511C77.9309 16.7634 81.5406 18.2652 85.153 19.7593C85.4116 19.8663 85.4325 19.9525 85.3176 20.1981C84.1213 22.7395 82.4653 24.9204 80.0988 26.4563C77.9492 27.8536 75.554 28.6607 73.0047 28.982C72.3569 29.063 71.7274 28.9193 71.0953 28.8174C70.3013 28.6869 69.4994 28.6085 68.7158 28.4361C67.7494 28.2245 66.8457 27.8066 65.908 27.4932C64.5785 27.0518 63.2725 26.5451 61.8881 26.2891C61.1228 26.148 60.3549 26.101 59.5922 26.2917C58.3907 26.5921 57.5757 27.3704 57.0298 28.4439C56.8914 28.713 56.7739 28.7234 56.5205 28.6189C53.104 27.2477 49.6824 25.8869 46.2581 24.5313C45.9995 24.4294 45.9472 24.3589 46.1248 24.116C47.1357 22.7395 47.9428 21.2272 48.9406 19.8402C50.2361 18.0354 51.8947 16.6615 53.9007 15.7186C54.9011 15.2511 55.9824 15.1309 57.1657 15.1596Z" fill="#3276BA"/>
<path d="M57.1734 0.20375C58.9025 0.1489 60.5925 0.676511 62.2772 1.34517C64.3851 2.1836 66.5295 2.94106 68.768 3.35897C70.8523 3.74815 73.0725 2.95151 73.9344 0.485839C74.018 0.245541 74.0964 0.20375 74.3367 0.303004C77.9334 1.80748 81.5353 3.30673 85.1372 4.79553C85.3723 4.89218 85.4428 4.96531 85.3201 5.23173C84.1212 7.7862 82.4547 9.96978 80.0804 11.5108C77.9412 12.8978 75.5539 13.7022 73.015 14.0261C72.3568 14.1097 71.7169 13.9634 71.0743 13.8563C70.2934 13.7284 69.4993 13.65 68.7262 13.4828C67.7597 13.2739 66.856 12.8507 65.9183 12.5425C64.4765 12.0646 63.0556 11.5239 61.5458 11.2757C59.5346 10.944 57.9309 11.7172 56.9958 13.5298C56.8939 13.731 56.8182 13.791 56.5857 13.697C53.1483 12.3179 49.7084 10.9466 46.2632 9.58582C45.9811 9.47351 45.9471 9.39254 46.1326 9.14179C47.1434 7.7653 47.9479 6.25038 48.9483 4.86606C50.2412 3.07688 51.8894 1.70561 53.8849 0.767929C54.8905 0.300392 55.9719 0.180243 57.1734 0.20375Z" fill="#1E9BD0"/>
<path d="M97.6772 1.06824H110.262L128.128 30.2723H128.248V1.06824H137.507V43.0917H125.398L107.057 13.1772H106.937V43.0917H97.6772V1.06824Z" fill="#3B3B3D"/>
<path d="M146.412 1.06824H174.963V9.61449H155.671V17.4503H173.895V25.9966H155.671V34.5428H176.031V43.0891H146.412V1.06824Z" fill="#3B3B3D"/>
<path d="M179.062 1.06824H189.152L195.859 28.0156H195.979L204.763 1.06824H213.37L222.096 28.7286H222.217L229.279 1.06824H238.656L226.37 43.0917H218.118L208.859 14.0078H208.739L199.479 43.0917H191.526L179.062 1.06824Z" fill="#3B3B3D"/>
<path d="M263.588 11.3358C262.104 9.43692 259.137 8.54625 256.88 8.54625C254.268 8.54625 250.648 9.73468 250.648 12.8795C250.648 20.535 269.997 15.6089 269.997 30.3298C269.997 39.7093 262.459 44.16 253.793 44.16C248.391 44.16 243.643 42.5563 239.665 38.8761L246.255 31.6332C248.153 34.1249 251.241 35.6111 254.326 35.6111C257.353 35.6111 260.735 34.1876 260.735 31.2179C260.735 23.5022 241.028 27.6578 241.028 13.65C241.033 4.68842 248.809 0 257.06 0C261.809 0 266.38 1.24589 269.94 4.39328L263.588 11.3358Z" fill="#3B3B3D"/>
</g>
<defs>
<clipPath id="clip0_1426_98">
<rect width="270" height="44.16" fill="white"/>
</clipPath>
</defs>
</svg>
