<svg width="270" height="45" viewBox="0 0 270 45" fill="none" xmlns="http://www.w3.org/2000/svg">
<g clip-path="url(#clip0_1426_97)">
<path d="M0.00783593 21.951C0.00783593 14.998 0.00783593 8.04487 0 1.09179C0 0.801864 0.0626874 0.718281 0.365677 0.718281C5.51388 0.73134 10.6595 0.679101 15.8051 0.749624C19.6708 0.804476 23.4608 1.39217 27.0392 2.96197C30.7325 4.58401 33.3785 7.31091 35.2147 10.8632C36.5624 13.4699 37.3251 16.2491 37.5837 19.1641C37.9233 23.0089 37.7169 26.8172 36.4789 30.4974C34.3397 36.8471 29.9594 40.8043 23.4791 42.4446C21.4809 42.9513 19.4409 43.1681 17.3801 43.1681C11.7121 43.1707 6.0415 43.1655 0.373513 43.176C0.0783593 43.176 0.00261198 43.1054 0.00261198 42.8077C0.00783593 35.8572 0.00783593 28.9041 0.00783593 21.951ZM11.639 22.0555C11.639 25.6679 11.6416 29.2776 11.6337 32.89C11.6337 33.159 11.6703 33.2609 11.9759 33.2531C12.8013 33.2269 13.6293 33.2478 14.4547 33.2426C15.7372 33.2322 17.017 33.1564 18.2682 32.8508C21.8048 31.9863 24.1843 29.8575 25.2369 26.3496C26.0597 23.607 26.0545 20.8227 25.4433 18.0409C24.9966 16.0114 24.0563 14.2535 22.3768 12.9658C20.6425 11.6337 18.6156 11.1348 16.4816 10.9781C14.9823 10.8684 13.483 10.9311 11.9811 10.905C11.699 10.8998 11.6233 10.9625 11.6259 11.255C11.6442 14.8543 11.639 18.4562 11.639 22.0555Z" fill="black"/>
<path d="M45.9473 39.4147C46.3573 38.7982 46.7779 38.1923 47.1723 37.5706C47.9951 36.2777 48.7342 34.9247 49.7843 33.7989C51.0589 32.4302 52.4929 31.2496 54.2742 30.5862C55.5332 30.116 56.8497 30.1422 58.1713 30.2101C59.9266 30.2989 61.465 31.0825 63.0818 31.6388C64.9651 32.284 66.8326 33.0153 68.8125 33.3444C70.8342 33.6814 73.0596 32.9657 73.9398 30.4556C74.0182 30.2283 74.0835 30.1657 74.3342 30.2728C77.9414 31.7877 81.5537 33.2896 85.1687 34.7862C85.3933 34.8803 85.4482 34.943 85.3333 35.1937C84.2127 37.6046 82.6351 39.6498 80.4907 41.23C79.1768 42.1964 77.6749 42.8024 76.1313 43.3065C74.9219 43.7009 73.6943 44.0483 72.4066 44.0144C71.5394 43.9909 70.6905 43.7558 69.8286 43.6617C68.0785 43.4685 66.5114 42.677 64.8632 42.1546C63.7453 41.802 62.6378 41.4311 61.4729 41.2509C59.4878 40.9453 57.9232 41.7263 56.9959 43.5181C56.9228 43.6591 56.8941 43.8002 56.6538 43.7035C53.1328 42.2905 49.6066 40.8904 46.0831 39.4852C46.0387 39.4643 46.0021 39.4408 45.9473 39.4147Z" fill="black"/>
<path d="M57.1657 15.1599C58.9026 15.1103 60.5847 15.63 62.2616 16.2961C64.3799 17.1371 66.5348 17.9025 68.7864 18.3204C70.8237 18.6991 73.0752 17.9416 73.9424 15.4263C74.0207 15.2017 74.086 15.152 74.3237 15.2513C77.9309 16.7636 81.5406 18.2655 85.153 19.7596C85.4116 19.8667 85.4325 19.9529 85.3176 20.1984C84.1213 22.7398 82.4653 24.9208 80.0988 26.4567C77.9492 27.8541 75.554 28.6612 73.0047 28.9825C72.3569 29.0634 71.7274 28.9198 71.0953 28.8179C70.3013 28.6873 69.4994 28.6089 68.7158 28.4366C67.7494 28.225 66.8457 27.8071 65.908 27.4936C64.5785 27.0522 63.2725 26.5455 61.8881 26.2895C61.1228 26.1485 60.3549 26.1014 59.5922 26.2921C58.3907 26.5925 57.5757 27.3709 57.0298 28.4444C56.8914 28.7134 56.7739 28.7239 56.5205 28.6194C53.104 27.2481 49.6824 25.8873 46.2581 24.5317C45.9995 24.4298 45.9472 24.3593 46.1248 24.1163C47.1357 22.7398 47.9428 21.2275 48.9406 19.8405C50.2361 18.0357 51.8947 16.6618 53.9007 15.7188C54.9011 15.2513 55.9824 15.1311 57.1657 15.1599Z" fill="black"/>
<path d="M57.1734 0.203751C58.9025 0.148899 60.5925 0.676518 62.2772 1.34518C64.3851 2.18363 66.5295 2.9411 68.768 3.35902C70.8523 3.7482 73.0725 2.95155 73.9344 0.485844C74.018 0.245542 74.0964 0.203751 74.3367 0.303006C77.9334 1.8075 81.5353 3.30678 85.1372 4.79561C85.3723 4.89225 85.4428 4.96538 85.3201 5.23181C84.1212 7.78632 82.4547 9.96993 80.0804 11.511C77.9412 12.898 75.5539 13.7024 73.015 14.0263C72.3568 14.1099 71.7169 13.9636 71.0743 13.8566C70.2934 13.7286 69.4993 13.6502 68.7262 13.483C67.7597 13.2741 66.856 12.8509 65.9183 12.5427C64.4765 12.0647 63.0556 11.5241 61.5458 11.2759C59.5346 10.9442 57.9309 11.7173 56.9958 13.5301C56.8939 13.7312 56.8182 13.7913 56.5857 13.6972C53.1483 12.3181 49.7084 10.9468 46.2632 9.58597C45.9811 9.47366 45.9471 9.39268 46.1326 9.14193C47.1434 7.76542 47.9479 6.25048 48.9483 4.86613C50.2412 3.07692 51.8894 1.70564 53.8849 0.767937C54.8905 0.300394 55.9719 0.180243 57.1734 0.203751Z" fill="black"/>
<path d="M97.6772 1.06836H110.262L128.128 30.2729H128.248V1.06836H137.507V43.0925H125.398L107.057 13.1775H106.937V43.0925H97.6772V1.06836Z" fill="black"/>
<path d="M146.412 1.06836H174.963V9.61475H155.671V17.4507H173.895V25.9971H155.671V34.5435H176.031V43.0898H146.412V1.06836Z" fill="black"/>
<path d="M179.061 1.06836H189.151L195.859 28.0161H195.979L204.763 1.06836H213.369L222.096 28.7292H222.216L229.279 1.06836H238.656L226.369 43.0925H218.118L208.858 14.0081H208.738L199.479 43.0925H191.525L179.061 1.06836Z" fill="black"/>
<path d="M263.587 11.336C262.104 9.43707 259.136 8.54639 256.88 8.54639C254.268 8.54639 250.647 9.73484 250.647 12.8797C250.647 20.5354 269.997 15.6092 269.997 30.3303C269.997 39.7099 262.459 44.1607 253.792 44.1607C248.391 44.1607 243.642 42.5569 239.664 38.8767L246.254 31.6336C248.153 34.1255 251.24 35.6117 254.325 35.6117C257.352 35.6117 260.735 34.1882 260.735 31.2183C260.735 23.5026 241.028 27.6582 241.028 13.6502C241.033 4.6885 248.809 0 257.06 0C261.808 0 266.379 1.24591 269.939 4.39334L263.587 11.336Z" fill="black"/>
</g>
<defs>
<clipPath id="clip0_1426_97">
<rect width="270" height="44.1607" fill="white"/>
</clipPath>
</defs>
</svg>
