<svg width="47" height="35" viewBox="0 0 47 35" fill="none" xmlns="http://www.w3.org/2000/svg">
<path d="M0.00679813 17.3759C0.00679813 11.8197 0.00679813 6.26579 0 0.711843C0 0.48116 0.052119 0.413054 0.301384 0.415251C4.54342 0.424039 8.78318 0.382296 13.023 0.439418C16.209 0.48116 19.3316 0.951313 22.2797 2.20798C25.323 3.5042 27.503 5.6814 29.0167 8.51989C30.127 10.6026 30.757 12.8216 30.9677 15.1526C31.2487 18.2239 31.0788 21.2667 30.0568 24.2085C28.2938 29.2813 24.684 32.4427 19.3452 33.7521C17.6978 34.1564 16.0164 34.3299 14.3191 34.3299C9.64881 34.3321 4.97623 34.3277 0.305916 34.3365C0.0634492 34.3365 0 34.2816 0 34.0421C0.00679813 28.4838 0.00679813 22.9298 0.00679813 17.3759ZM9.58989 17.4594C9.58989 20.344 9.59216 23.2308 9.58536 26.1155C9.58536 26.3308 9.61709 26.412 9.86862 26.4055C10.5484 26.3835 11.2305 26.4033 11.9126 26.3967C12.9708 26.3901 14.0245 26.3286 15.0556 26.0825C17.9697 25.3927 19.9321 23.6922 20.7977 20.8889C21.4753 18.6985 21.4708 16.4751 20.9677 14.2518C20.6006 12.6304 19.8233 11.2266 18.4411 10.1962C17.0112 9.13065 15.3411 8.733 13.5849 8.60777C12.3499 8.51989 11.1127 8.57042 9.87768 8.55065C9.64655 8.54625 9.5831 8.59678 9.58536 8.82966C9.59443 11.7077 9.58989 14.5835 9.58989 17.4594Z" fill="#E5E5E5"/>
<path d="M14.5005 31.3267C14.8381 30.8346 15.1848 30.349 15.5089 29.8525C16.1864 28.8199 16.796 27.739 17.6616 26.8383C18.7108 25.7442 19.8937 24.8017 21.3621 24.27C22.3999 23.8943 23.4853 23.9163 24.573 23.9712C26.0188 24.0437 27.2855 24.6698 28.6202 25.1114C30.1724 25.6277 31.7111 26.2099 33.3404 26.4736C35.0059 26.7438 36.8391 26.1704 37.5643 24.1667C37.63 23.9866 37.6821 23.9361 37.8906 24.0195C40.8636 25.2301 43.8389 26.4296 46.8188 27.627C47.0046 27.7017 47.0499 27.7522 46.9548 27.9521C46.0325 29.8789 44.7318 31.5134 42.9643 32.7745C41.8811 33.5478 40.6438 34.0312 39.3726 34.4332C38.3755 34.7474 37.3649 35.0264 36.3044 34.9978C35.5883 34.9802 34.8903 34.7913 34.1788 34.7144C32.7376 34.5606 31.446 33.9279 30.0863 33.5105C29.1663 33.2271 28.2531 32.9327 27.2946 32.7899C25.6585 32.546 24.3691 33.1699 23.6054 34.6002C23.5443 34.7144 23.5216 34.8265 23.3222 34.7474C20.4217 33.6181 17.5166 32.4999 14.6115 31.3772C14.5775 31.3662 14.5458 31.3486 14.5005 31.3267Z" fill="#23344D"/>
<path d="M23.7435 11.9493C25.1756 11.9098 26.5602 12.325 27.9424 12.8567C29.6873 13.529 31.4639 14.1397 33.3175 14.4737C34.9966 14.7747 36.8503 14.1705 37.5663 12.1625C37.6298 11.9823 37.6842 11.9428 37.879 12.0218C40.8498 13.2302 43.8251 14.4297 46.8027 15.6227C47.0157 15.7084 47.0338 15.7765 46.9387 15.972C45.9529 18.002 44.5888 19.7442 42.64 20.9723C40.8702 22.0884 38.8942 22.7343 36.7936 22.9913C36.2611 23.0572 35.7422 22.9408 35.221 22.8595C34.5683 22.7563 33.9044 22.6926 33.2586 22.5563C32.4632 22.3872 31.7177 22.0532 30.9449 21.805C29.8504 21.4513 28.7718 21.047 27.632 20.8427C26.9998 20.7307 26.3698 20.6933 25.7398 20.8449C24.7496 21.0844 24.0788 21.7061 23.6279 22.5629C23.5146 22.7782 23.4171 22.7848 23.2087 22.7035C20.392 21.6094 17.5753 20.5197 14.7541 19.4388C14.5411 19.3575 14.498 19.3026 14.6453 19.1071C15.4792 18.0064 16.1432 16.8003 16.9657 15.6908C18.033 14.2496 19.4017 13.1511 21.0537 12.3997C21.8785 12.024 22.7713 11.9274 23.7435 11.9493Z" fill="#3276BA"/>
<path d="M23.7505 0.00223156C25.1759 -0.0417079 26.5695 0.380111 27.9563 0.913976C29.6921 1.58186 31.4596 2.19042 33.3065 2.52216C35.0241 2.83193 36.8528 2.19701 37.5643 0.226323C37.6346 0.0351862 37.698 3.45795e-05 37.8952 0.0813226C40.8592 1.28307 43.8254 2.48042 46.7939 3.67118C46.9888 3.74807 47.0455 3.80519 46.9435 4.0183C45.9555 6.05929 44.5823 7.80369 42.6267 9.03619C40.8637 10.1457 38.8968 10.7872 36.8052 11.0464C36.2636 11.1123 35.7356 10.9959 35.2054 10.9124C34.5618 10.8091 33.9092 10.7476 33.2725 10.6136C32.4748 10.4466 31.7316 10.1083 30.9588 9.86225C29.7714 9.48218 28.5999 9.04937 27.3558 8.84945C25.6993 8.58361 24.3782 9.20096 23.6078 10.6488C23.5239 10.8091 23.4605 10.8575 23.2701 10.7828C20.4376 9.6799 17.6028 8.58581 14.7634 7.49831C14.53 7.40823 14.5028 7.34452 14.6547 7.1446C15.4886 6.04391 16.1502 4.83557 16.9751 3.7305C18.0401 2.30027 19.3997 1.20398 21.0426 0.457005C21.8697 0.0791256 22.7626 -0.0175412 23.7505 0.00223156Z" fill="#1E9BD0"/>
</svg>
