<svg width="48" height="36" viewBox="0 0 48 36" fill="none" xmlns="http://www.w3.org/2000/svg">
<path d="M0.00891925 17.8721C0.00891925 12.1597 0.00891925 6.44502 0.00222981 0.732607C0.00222981 0.494682 0.0535155 0.425751 0.303255 0.425751C4.54436 0.436869 8.78546 0.392397 13.0243 0.452434C16.2107 0.496906 19.3347 0.979426 22.2825 2.26911C25.3262 3.60327 27.507 5.84243 29.0188 8.76201C30.1292 10.9056 30.758 13.187 30.9699 15.584C31.2508 18.7437 31.0814 21.8723 30.0579 24.8964C28.2963 30.113 24.6863 33.3639 19.3459 34.7136C17.698 35.1294 16.019 35.3073 14.3199 35.3073C9.6484 35.3095 4.97694 35.3051 0.305484 35.314C0.0624348 35.314 0 35.2561 0 35.0115C0.00891925 29.2991 0.00891925 23.5845 0.00891925 17.8721ZM9.59265 17.9588C9.59265 20.9273 9.59489 23.8936 9.5882 26.8621C9.5882 27.0822 9.61941 27.1667 9.87138 27.16C10.5515 27.1378 11.2338 27.1578 11.9139 27.1511C12.9708 27.1422 14.0255 27.08 15.0579 26.8287C17.9723 26.1194 19.9323 24.3694 20.8019 21.4876C21.4798 19.2351 21.4753 16.9471 20.9736 14.6612C20.6057 12.9935 19.8297 11.5504 18.4472 10.4897C17.0179 9.39573 15.3478 8.98437 13.5907 8.8554C12.3554 8.76423 11.1201 8.8176 9.88253 8.79536C9.65063 8.79091 9.5882 8.84206 9.59043 9.08221C9.59711 12.0418 9.59265 15.0014 9.59265 17.9588Z" fill="#3B3B3D"/>
<path d="M14.5029 32.2209C14.8419 31.7139 15.1875 31.2158 15.513 30.7044C16.1909 29.6437 16.7996 28.5297 17.6648 27.6047C18.715 26.4796 19.8968 25.5101 21.3641 24.9631C22.4009 24.5784 23.4868 24.5984 24.575 24.654C26.0199 24.7274 27.2887 25.3722 28.6199 25.8281C30.1718 26.3595 31.7104 26.9576 33.3404 27.2289C35.0061 27.5069 36.839 26.9176 37.5659 24.8563C37.6306 24.6696 37.6841 24.6184 37.8914 24.7051C40.8638 25.9504 43.8406 27.1844 46.8196 28.4141C47.0047 28.4919 47.0493 28.5431 46.9534 28.7499C46.0303 30.7311 44.7303 32.4121 42.962 33.7085C41.8806 34.5023 40.6408 35.0004 39.3698 35.414C38.3731 35.7386 37.3607 36.0232 36.3016 35.9966C35.5858 35.9788 34.8879 35.7831 34.1766 35.7053C32.7339 35.5474 31.4428 34.8959 30.0849 34.4667C29.164 34.1754 28.252 33.873 27.2931 33.724C25.6587 33.4728 24.3676 34.1154 23.605 35.5874C23.5448 35.703 23.5225 35.8187 23.3218 35.7386C20.4209 34.5779 17.5154 33.4261 14.6122 32.272C14.5787 32.2631 14.5475 32.2431 14.5029 32.2209Z" fill="#23344D"/>
<path d="M23.7475 12.2908C25.1791 12.2486 26.566 12.6755 27.9463 13.2247C29.6922 13.9163 31.4671 14.5455 33.3224 14.888C35.0014 15.197 36.8566 14.5767 37.5724 12.5109C37.637 12.3264 37.6906 12.2864 37.8868 12.3664C40.8591 13.6072 43.8315 14.8435 46.8105 16.0709C47.0223 16.1576 47.0424 16.2288 46.9465 16.4311C45.9609 18.5191 44.5963 20.3113 42.6474 21.5743C40.877 22.7217 38.9036 23.3865 36.8009 23.6512C36.2679 23.7179 35.7484 23.6 35.2266 23.5155C34.5733 23.4088 33.911 23.3443 33.2644 23.202C32.4683 23.0285 31.7236 22.6839 30.9498 22.4282C29.855 22.0657 28.778 21.6477 27.6363 21.4387C27.0053 21.323 26.372 21.2852 25.7432 21.4409C24.7532 21.6877 24.082 22.3259 23.6316 23.2087C23.5179 23.431 23.422 23.4377 23.2124 23.3532C20.3961 22.2258 17.5776 21.1074 14.7569 19.9956C14.5451 19.9111 14.5005 19.8555 14.6477 19.6531C15.4816 18.5213 16.1461 17.2806 16.9689 16.1399C18.0348 14.6567 19.4016 13.5271 21.0539 12.7533C21.879 12.3664 22.7731 12.2686 23.7475 12.2908Z" fill="#3276BA"/>
<path d="M23.7522 0.00326223C25.1771 -0.0412097 26.5707 0.392391 27.9577 0.941619C29.6947 1.62871 31.4629 2.25354 33.307 2.59597C35.0262 2.91617 36.8546 2.26243 37.5637 0.234516C37.6328 0.0366162 37.6975 0.00326223 37.8937 0.0855352C40.8571 1.32185 43.825 2.55373 46.7929 3.77893C46.9869 3.85898 47.0449 3.91679 46.9423 4.13693C45.9545 6.236 44.5809 8.03044 42.6254 9.29789C40.8616 10.4386 38.8949 11.099 36.8033 11.3636C36.2615 11.4325 35.7353 11.3125 35.2046 11.2257C34.5601 11.119 33.9068 11.0568 33.2713 10.9189C32.4753 10.7477 31.7305 10.4008 30.9568 10.1451C29.7683 9.75373 28.5976 9.30901 27.3534 9.10444C25.6966 8.83093 24.3744 9.46688 23.6051 10.9567C23.5203 11.1212 23.4579 11.1702 23.2684 11.0946C20.4365 9.96052 17.6002 8.83538 14.7639 7.71691C14.5297 7.62575 14.503 7.55904 14.6546 7.35224C15.4886 6.22043 16.1508 4.97744 16.9758 3.83896C18.0439 2.36694 19.4019 1.23958 21.0475 0.470217C21.8725 0.0833116 22.7644 -0.0167501 23.7522 0.00326223Z" fill="#1E9BD0"/>
</svg>
